<svg version="1.1" xmlns="http://www.w3.org/2000/svg" xmlns:xlink="http://www.w3.org/1999/xlink" width="400.61418" height="427.56764" viewBox="0,0,400.61418,427.56764"><g transform="translate(-39.69291,33.78382)"><g data-paper-data="{&quot;isPaintingLayer&quot;:true}" fill-rule="nonzero" stroke="none" stroke-width="1" stroke-linecap="butt" stroke-linejoin="miter" stroke-miterlimit="10" stroke-dasharray="" stroke-dashoffset="0" style="mix-blend-mode: normal"><g><g><path d="M301.36724,125.00797l135.40551,-79.39543c2.18126,3.83572 3.53434,8.15655 3.53434,12.03746v134.71502c0,3.88091 -1.35489,8.20267 -3.53525,12.03839z" fill="#00599c"/><path d="M289.33487,280.88816l-114.8751,-67.35705c-3.30822,-1.93953 -6.31677,-5.29106 -8.49713,-9.12678l135.4046,-79.39636l135.4046,79.39543c-2.18036,3.83664 -5.188,7.18725 -8.49713,9.1277l-114.8751,67.35705c-6.61735,3.88091 -17.44739,3.88091 -24.06474,0z" fill="#004482"/><path d="M301.36724,125.00797l-135.4046,79.39543c-2.18126,-3.83572 -3.53525,-8.15748 -3.53525,-12.03839v-134.71502c0,-7.7609 5.41411,-17.2861 12.03237,-21.16609l114.8751,-67.35705c6.61735,-3.88091 17.44739,-3.88091 24.06474,0l114.8751,67.35705c3.30822,1.94046 6.31677,5.29106 8.49803,9.1277z" fill="#659ad2"/><path d="M301.36724,219.07949c-51.07447,0 -92.62657,-42.2003 -92.62657,-94.07151c0,-51.87122 41.5521,-94.07151 92.62657,-94.07151c32.9569,0 63.69348,18.01193 80.2137,47.00624l-40.08642,23.55846c-8.26828,-14.51284 -23.6452,-23.52895 -40.12728,-23.52895c-25.53769,0 -46.31328,21.09969 -46.31328,47.03576c0,25.93515 20.77559,47.03576 46.31328,47.03576c16.4839,0 31.86081,-9.01611 40.13001,-23.53171l40.08642,23.55754c-16.52022,28.99708 -47.25771,47.00993 -80.21642,47.00993z" fill="#ffffff"/><path d="M393.99381,130.23355h-10.29245v10.45301h-10.29063v-10.45301h-10.29245v-10.45208h10.29245v-10.45208h10.29063v10.45208h10.29245z" fill="#ffffff"/><path d="M432.58821,130.23355h-10.29245v10.45301h-10.29063v-10.45301h-10.29245v-10.45208h10.29245v-10.45208h10.29063v10.45208h10.29245z" fill="#ffffff"/></g><g><path d="M178.63276,234.99295l135.40551,-79.39543c2.18126,3.83572 3.53434,8.15655 3.53434,12.03746v134.71502c0,3.88091 -1.35489,8.20267 -3.53525,12.03839z" fill="#3949ab"/><path d="M166.60038,390.87313l-114.8751,-67.35705c-3.30822,-1.93953 -6.31677,-5.29106 -8.49713,-9.12678l135.4046,-79.39636l135.4046,79.39543c-2.18036,3.83664 -5.188,7.18725 -8.49713,9.1277l-114.8751,67.35705c-6.61735,3.88091 -17.44739,3.88091 -24.06474,0z" fill="#283593"/><path d="M178.63276,234.99295l-135.4046,79.39543c-2.18126,-3.83572 -3.53525,-8.15748 -3.53525,-12.03839v-134.71502c0,-7.7609 5.41411,-17.2861 12.03237,-21.16609l114.8751,-67.35705c6.61735,-3.88091 17.44739,-3.88091 24.06474,0l114.8751,67.35705c3.30822,1.94046 6.31677,5.29106 8.49803,9.1277z" fill="#5c6bc0"/><path d="M178.63276,329.06446c-51.07447,0 -92.62657,-42.2003 -92.62657,-94.07151c0,-51.87122 41.5521,-94.07151 92.62657,-94.07151c32.9569,0 63.69348,18.01193 80.2137,47.00624l-40.08642,23.55846c-8.26828,-14.51284 -23.6452,-23.52895 -40.12728,-23.52895c-25.53769,0 -46.31328,21.09969 -46.31328,47.03576c0,25.93515 20.77559,47.03576 46.31328,47.03576c16.4839,0 31.86081,-9.01611 40.13001,-23.53171l40.08642,23.55754c-16.52022,28.99708 -47.25771,47.00993 -80.21642,47.00993z" fill="#ffffff"/></g></g></g></g></svg>