<svg xmlns="http://www.w3.org/2000/svg" xmlns:xlink="http://www.w3.org/1999/xlink" viewBox="0 0 61 66" fill="#fff" fill-rule="evenodd" stroke="#000" stroke-linecap="round" stroke-linejoin="round"><use xlink:href="#A" x="1" y="1"/><symbol id="A" overflow="visible"><path d="M58.266 31.516s-1-1.214-1.16-2.748.572-1 .572-1-.286-2.036-1.716-3.786-2.964-3.8-3.64-6.572-1.928-4.356-2.786-5.464-1.214-3.286-1.716-4.072-.574-5.126-4.18-7.1-10.2.294-12.108 1.652-3.68 5.286-6 6.894-4.214 1.64-6.072 4.8-2.25 5-2.16 6.856c0 0-1.34.16-1.5-.588s.376-3.268.75-4c0 0 .376.32.32.644 0 0 1.126-2.304.428-3.696a1.32 1.32 0 0 0 .56.268c.205.044.456-2.17.456-3.588s-.536-2.52-1.474-3.16c0 0 .7-.91-.08-1.9 0 0-.348-.796-1.26-1.74s-1.598-1.496-2.518-1.468c0 0 .16-.348.32-.56 0 0-.8.092-1.046.448 0 0-.428-.26-.508-.876 0 0-.75.214-.832.75 0 0-1.652-.56-2.356 1.232 0 0 .268.106.348.294 0 0-.24.536-1.286.616s-4.046 0-4.954.32-1.286.644-1.286 1c0 0-.456.214-.67 1.206 0 0-.712.348-.712.964s.392.44.392.44-.428 1.224 1.072 1.304c0 0 .24.616 1.528.616s2.2.214 2.76 1c0 0-.428 1.608-2.116 3.08.249.033.5.042.75.028s-1.474 1.232-1.848 3.026c0 0 .51-.508.804-.48 0 0-1.848 5.116.724 10.2 0 0 .24-.508.348-.56 0 0-.106 1.716.94 3.054 0 0 .08-.75.48-1 0 0 1.606 2.92 3.254 4.232s4.166 1.928 4.728 3.268c0 0 .884-.988.884-1.632 0 0 .24.614.16 1.256 0 0 .992-.48 1.312-.748s1.716-1.232 1.9.32-1.374 4.66.054 8.52c0 0-.5.7-.5 1.636s.714 1.4.714 1.828-.32 1.216-.32 2.036.75 2.134.072 5.066-.964 3.72-1.36 4.2-1.928 1.36-1.64 2.786c0 0-3.606.464-3.572 1.714s1.86 1.64 4.036 1.64 2.748-.46 2.8-1.248-.5-.93 0-1.392 1.04-1 .966-2.964.892-3.786.892-3.786-.2-1.68.394-2.714 2.106-3.072 1.072-6.2c.207.073.422.12.64.14s-.608-1.714.5-3.786 1.68-6.286 1.68-6.286 2.536.216 3.64 0c0 0-2.428 5.09-2.2 8.92 0 0-.608.614-.608 1.292s.36 1.534.964 2.14 2.608 1.8 3.714 3.14 1.86 2.784 2.2 3.2c0 0-1.034.68-.75 1.75 0 0-1.036.32-.928 1.214 0 0-1.5.036-2.286.716s-1.2 1.572-.464 1.856 3.36.286 4.25.286 1.928-.68 2-1.14-.32-1.608-.32-1.608.536.072.75-.572c0 0 1 3.714 2.536 3.606 0 0 .214-.034.25-.356 0 0 .714.2 1.072-.2s1.214-5.392-1.8-5.466c0 0 .214-.5-.36-.856s5-7.392 5.64-8c0 0-.786-6.284.786-9.32l2.856-5.108s.32 6.75 3.392 11.928a2.62 2.62 0 0 0 .428 1.75c-.14.964-.534 1.464-.534 2.68s.892 4.428.034 7.928c-.172.7-1.892 2.786-1.284 4.5 0 0-1.428.8-1.428 1.894s.64 1.286 1.108 1.286.714-.464.964-.464.608.68 1.75.68 2.14-.928 2.14-1.464-.928-1.428-.928-1.428.608-.572.608-1.284-.964-1.892-.964-3.392.312-4.412.892-5.68c1.16-2.536 1.036-4.554.36-5.088 0 0 .356-1.624.356-3.34s-1.32-6.304-.214-10.928c0 0 1.32-1.928 1.608-4.964 0 0 2.392 4.86.606 8.25s-1.428 3.36-1.464 4.392.5 2.466.5 2.466l1.61-1.616s-.02-1.14.766-1.964 1.36-3.052 1-3.668l.572.4s.286-1.072-.25-2.64c0 0 .574-.286 1.2.034zm-21.444 16.07l-2.75 4.428s-2.144-1.214-2.8-2.572-1.25-2.214-1.536-2.428c0 0 .874-1.2 1.088-2.428 0 0 .384.03.6.8 1.3-1.632 2.146-3.4 2.384-5.26 0 0 .32.32.608.428 0 0 .034-1.286.5-2.214s1.464-2.108 1.608-3.894h.64s-.536 4 0 7.428.356 4.64-.32 5.714z" stroke="none" fill="#000" fill-rule="nonzero"/></symbol></svg>