<svg xmlns="http://www.w3.org/2000/svg" xmlns:xlink="http://www.w3.org/1999/xlink" viewBox="0 0 65 65" fill="#fff" fill-rule="evenodd" stroke="#000" stroke-linecap="round" stroke-linejoin="round"><use xlink:href="#Q" x=".5" y=".5"/><defs><linearGradient id="A" x1="84.75%" y1="111.40%" x2="58.25%" y2="64.58%"><stop offset="0%" stop-color="#fb7655"/><stop offset="0%" stop-color="#fb7655"/><stop offset="41%" stop-color="#e42b1e"/><stop offset="99%" stop-color="#900"/></linearGradient><linearGradient id="B" x1="116.67%" y1="60.91%" x2="1.77%" y2="19.31%"><stop offset="0%" stop-color="#871101"/><stop offset="0%" stop-color="#871101"/><stop offset="99%" stop-color="#911209"/></linearGradient><linearGradient id="C" x1="75.77%" y1="219.28%" x2="38.98%" y2="7.77%"><stop offset="0%" stop-color="#871101"/><stop offset="0%" stop-color="#871101"/><stop offset="99%" stop-color="#911209"/></linearGradient><linearGradient id="D" x1="50.01%" y1="7.25%" x2="66.48%" y2="79.15%"><stop offset="0%" stop-color="#fff"/><stop offset="0%" stop-color="#fff"/><stop offset="23%" stop-color="#e57252"/><stop offset="46%" stop-color="#de3b20"/><stop offset="99%" stop-color="#a60003"/></linearGradient><linearGradient id="E" x1="46.17%" y1="16.35%" x2="49.93%" y2="83.06%"><stop offset="0%" stop-color="#fff"/><stop offset="0%" stop-color="#fff"/><stop offset="23%" stop-color="#e4714e"/><stop offset="56%" stop-color="#be1a0d"/><stop offset="99%" stop-color="#a80d00"/></linearGradient><linearGradient id="F" x1="36.97%" y1="15.61%" x2="49.53%" y2="92.48%"><stop offset="0%" stop-color="#fff"/><stop offset="0%" stop-color="#fff"/><stop offset="18%" stop-color="#e46342"/><stop offset="40%" stop-color="#c82410"/><stop offset="99%" stop-color="#a80d00"/></linearGradient><linearGradient id="G" x1="13.59%" y1="58.35%" x2="85.76%" y2="-46.72%"><stop offset="0%" stop-color="#fff"/><stop offset="0%" stop-color="#fff"/><stop offset="54%" stop-color="#c81f11"/><stop offset="99%" stop-color="#bf0905"/></linearGradient><linearGradient id="H" x1="27.62%" y1="21.13%" x2="50.74%" y2="79.04%"><stop offset="0%" stop-color="#fff"/><stop offset="0%" stop-color="#fff"/><stop offset="31%" stop-color="#de4024"/><stop offset="99%" stop-color="#bf190b"/></linearGradient><linearGradient id="I" x1="-20.68%" y1="122.28%" x2="104.24%" y2="-6.34%"><stop offset="0%" stop-color="#bd0012"/><stop offset="0%" stop-color="#bd0012"/><stop offset="7%" stop-color="#fff"/><stop offset="17%" stop-color="#fff"/><stop offset="27%" stop-color="#c82f1c"/><stop offset="33%" stop-color="#820c01"/><stop offset="46%" stop-color="#a31601"/><stop offset="72%" stop-color="#b31301"/><stop offset="99%" stop-color="#e82609"/></linearGradient><linearGradient id="J" x1="58.79%" y1="65.20%" x2="11.96%" y2="50.13%"><stop offset="0%" stop-color="#8c0c01"/><stop offset="0%" stop-color="#8c0c01"/><stop offset="54%" stop-color="#990c00"/><stop offset="99%" stop-color="#a80d0e"/></linearGradient><linearGradient id="K" x1="79.31%" y1="62.75%" x2="23.09%" y2="17.89%"><stop offset="0%" stop-color="#7e110b"/><stop offset="0%" stop-color="#7e110b"/><stop offset="99%" stop-color="#9e0c00"/></linearGradient><linearGradient id="L" x1="92.88%" y1="74.11%" x2="59.84%" y2="39.69%"><stop offset="0%" stop-color="#79130d"/><stop offset="0%" stop-color="#79130d"/><stop offset="99%" stop-color="#9e120b"/></linearGradient><radialGradient id="M" cx="32%" cy="40%" r="91%" fx="32%" fy="40%"><stop offset="0%" stop-color="#a80d00"/><stop offset="0%" stop-color="#a80d00"/><stop offset="99%" stop-color="#7e0e08"/></radialGradient><radialGradient id="N" cx="14%" cy="41%" r="99%" fx="14%" fy="41%"><stop offset="0%" stop-color="#a30c00"/><stop offset="0%" stop-color="#a30c00"/><stop offset="99%" stop-color="#800e08"/></radialGradient><linearGradient id="O" x1="56.57%" y1="101.70%" x2="3.11%" y2="11.98%"><stop offset="0%" stop-color="#8b2114"/><stop offset="0%" stop-color="#8b2114"/><stop offset="43%" stop-color="#9e100a"/><stop offset="99%" stop-color="#b3100c"/></linearGradient><linearGradient id="P" x1="30.87%" y1="35.64%" x2="92.49%" y2="100.73%"><stop offset="0%" stop-color="#b31000"/><stop offset="0%" stop-color="#b31000"/><stop offset="44%" stop-color="#910f08"/><stop offset="99%" stop-color="#791c12"/></linearGradient></defs><symbol id="Q" overflow="visible"><g stroke="none"><path d="M49.584 42.121l-36.54 21.7 47.313-3.211L64 12.901z" fill="url(#A)"/><path d="M56.367 32.512l-11.08 14.626L60.43 60.576z" fill="url(#B)"/><path d="M30.697 58.241l-17.495 5.524 47.29-3.182z" fill="url(#C)"/><path d="M20.686 39.386L4.309 42.888l8.935 20.877z" fill="url(#D)"/><path d="M38.44 20.395L18.842 38.762l26.446 8.453z" fill="url(#E)"/><path d="M43.921 5.643l-5.159 16.678 23.684-1.55z" fill="url(#F)"/><path d="M42.888 6.267L36.017.168l17.766.081z" fill="url(#G)"/><path d="M4.564 42.742L.872 32.825 0 51.069z" fill="url(#H)"/><path d="M.626 32.512l3.715 10.537 16.141-3.618 18.428-17.126 5.201-16.519L35.92 0 21.998 5.21 8.792 17.517c-.304.155-5.621 10.207-8.172 14.998z"/><path d="M13.67 13.583C23.177 4.158 35.432-1.411 40.135 3.334s-.284 16.28-9.788 25.699-21.61 15.298-26.31 10.553.129-16.581 9.636-26.003z" fill="url(#I)"/><path d="M13.244 63.758l7.384-24.459 24.524 7.882c-8.867 8.315-18.729 15.34-31.908 16.577z" fill="url(#J)"/><path d="M38.943 22.256l6.299 24.937c7.41-7.785 14.051-16.161 17.311-26.52l-23.606 1.583z" fill="url(#K)"/><path d="M62.485 20.803c2.52-7.604 3.101-18.509-8.78-20.538l-9.749 5.388 18.528 15.15z" fill="url(#L)"/><path d="M0 50.957c.349 12.549 9.4 12.737 13.26 12.846L4.351 42.994 0 50.957z" fill="#9e1209"/><path d="M38.979 22.289l17.395 10.66c.362.203 4.942-7.73 5.986-12.21l-23.38 1.551z" fill="url(#M)"/><path d="M20.618 39.299l9.872 19.045c5.837-3.166 10.408-7.023 14.594-11.154l-24.466-7.891z" fill="url(#N)"/><path d="M4.313 43.026L2.914 59.681c2.639 3.605 6.267 3.918 10.078 3.637-2.755-6.858-8.26-20.57-8.68-20.292z" fill="url(#O)"/><path d="M43.898 5.685l19.607 2.752c-1.047-4.432-4.264-7.3-9.739-8.192l-9.868 5.44z" fill="url(#P)"/></g></symbol></svg>